<svg width="49" height="49" viewBox="0 0 49 49" fill="none" xmlns="http://www.w3.org/2000/svg">
<path d="M4.70312 0C3.39062 0 2.26042 0.473958 1.3125 1.42188C0.4375 2.29688 0 3.39062 0 4.70312V37.2969C0 38.6094 0.4375 39.7396 1.3125 40.6875C2.26042 41.5625 3.39062 42 4.70312 42H25.9219C25.776 41.1979 25.7031 40.4323 25.7031 39.7031C25.7031 38.099 25.9583 36.5312 26.4688 35H4.70312L12.7969 24.5L18.7031 31.5L26.7969 21L32.0469 27.8906C34.3802 26.4323 36.9323 25.7031 39.7031 25.7031C40.4323 25.7031 41.1979 25.776 42 25.9219V4.70312C42 3.39062 41.526 2.29688 40.5781 1.42188C39.7031 0.473958 38.6094 0 37.2969 0H4.70312Z" fill="#B0BEC5"/>
<path d="M37.7368 31V37.7368H31V42.2632H37.7368V49H42.2632V42.2632H49V37.7368H42.2632V31H37.7368Z" fill="#00ACC1"/>
</svg>
